<svg width="25" height="24" viewBox="0 0 25 24" fill="none" xmlns="http://www.w3.org/2000/svg">
<g clip-path="url(#clip0_1143_53049)">
<path fill-rule="evenodd" clip-rule="evenodd" d="M6.21777 5.22246C6.21777 4.83424 6.5394 4.51953 6.93615 4.51953L17.1987 4.51953C17.5954 4.51953 17.9171 4.83424 17.9171 5.22246C17.9171 5.61068 17.5954 5.92539 17.1987 5.92539L6.93615 5.92539C6.5394 5.92539 6.21777 5.61068 6.21777 5.22246Z" fill="#6E5FAF"/>
<path fill-rule="evenodd" clip-rule="evenodd" d="M6.21777 8.23418C6.21777 7.84596 6.5394 7.53125 6.93615 7.53125L15.1462 7.53125C15.5429 7.53125 15.8645 7.84596 15.8645 8.23418C15.8645 8.6224 15.5429 8.93711 15.1462 8.93711L6.93615 8.93711C6.5394 8.93711 6.21777 8.6224 6.21777 8.23418Z" fill="#6E5FAF"/>
<path fill-rule="evenodd" clip-rule="evenodd" d="M6.21777 11.2459C6.21777 10.8577 6.5394 10.543 6.93615 10.543L12.0674 10.543C12.4642 10.543 12.7858 10.8577 12.7858 11.2459C12.7858 11.6341 12.4642 11.9488 12.0674 11.9488L6.93615 11.9488C6.5394 11.9488 6.21777 11.6341 6.21777 11.2459Z" fill="#6E5FAF"/>
<path fill-rule="evenodd" clip-rule="evenodd" d="M6.21777 14.2596C6.21777 13.8714 6.5394 13.5566 6.93615 13.5566L10.0149 13.5566C10.4117 13.5566 10.7333 13.8714 10.7333 14.2596C10.7333 14.6478 10.4117 14.9625 10.0149 14.9625L6.93615 14.9625C6.5394 14.9625 6.21777 14.6478 6.21777 14.2596Z" fill="#6E5FAF"/>
<path fill-rule="evenodd" clip-rule="evenodd" d="M1.59961 1.70711C1.59961 0.7643 2.38071 0 3.34424 0H20.2774C21.2409 0 22.022 0.7643 22.022 1.70711V11.2469C22.022 11.6351 21.7004 11.9498 21.3037 11.9498C20.9069 11.9498 20.5853 11.6351 20.5853 11.2469V1.70711C20.5853 1.54073 20.4474 1.40586 20.2774 1.40586H3.34424C3.1742 1.40586 3.03636 1.54073 3.03636 1.70711V22.2929C3.03636 22.4593 3.1742 22.5941 3.34424 22.5941H11.0411C11.4379 22.5941 11.7595 22.9089 11.7595 23.2971C11.7595 23.6853 11.4379 24 11.0411 24H3.34424C2.38071 24 1.59961 23.2357 1.59961 22.2929V1.70711Z" fill="#6E5FAF"/>
<path fill-rule="evenodd" clip-rule="evenodd" d="M22.8498 15.2097C23.1632 15.4907 23.1844 15.9672 22.8971 16.2738L17.3976 22.1443C17.0225 22.5446 16.382 22.5582 15.9895 22.1742L13.0624 19.31C12.7618 19.0158 12.7618 18.539 13.0624 18.2449C13.3629 17.9507 13.8503 17.9507 14.1509 18.2449L16.6612 20.7012L21.7624 15.2559C22.0496 14.9493 22.5365 14.9286 22.8498 15.2097Z" fill="#6E5FAF"/>
</g>
<defs>
<clipPath id="clip0_1143_53049">
<rect width="24" height="24" fill="white" transform="translate(0.599609)"/>
</clipPath>
</defs>
</svg>
