<svg width="25" height="24" viewBox="0 0 25 24" fill="none" xmlns="http://www.w3.org/2000/svg">
<g clip-path="url(#clip0_1143_27024)">
<path fill-rule="evenodd" clip-rule="evenodd" d="M5.5293 5.02176C5.5293 4.64838 5.83078 4.3457 6.20267 4.3457L15.8224 4.3457C16.1943 4.3457 16.4957 4.64838 16.4957 5.02176C16.4957 5.39514 16.1943 5.69782 15.8224 5.69782L6.20267 5.69782C5.83078 5.69782 5.5293 5.39514 5.5293 5.02176Z" fill="#6E5FAF"/>
<path fill-rule="evenodd" clip-rule="evenodd" d="M5.5293 7.9202C5.5293 7.54682 5.83078 7.24414 6.20267 7.24414L13.8984 7.24414C14.2703 7.24414 14.5718 7.54682 14.5718 7.9202C14.5718 8.29357 14.2703 8.59625 13.8984 8.59625L6.20267 8.59625C5.83078 8.59625 5.5293 8.29357 5.5293 7.9202Z" fill="#6E5FAF"/>
<path fill-rule="evenodd" clip-rule="evenodd" d="M5.5293 10.8167C5.5293 10.4433 5.83078 10.1406 6.20267 10.1406L11.0125 10.1406C11.3844 10.1406 11.6859 10.4433 11.6859 10.8167C11.6859 11.1901 11.3844 11.4927 11.0125 11.4927L6.20267 11.4927C5.83078 11.4927 5.5293 11.1901 5.5293 10.8167Z" fill="#6E5FAF"/>
<path fill-rule="evenodd" clip-rule="evenodd" d="M5.5293 13.7151C5.5293 13.3417 5.83078 13.0391 6.20267 13.0391L9.08858 13.0391C9.46048 13.0391 9.76196 13.3417 9.76196 13.7151C9.76196 14.0885 9.46048 14.3912 9.08858 14.3912L6.20267 14.3912C5.83078 14.3912 5.5293 14.0885 5.5293 13.7151Z" fill="#6E5FAF"/>
<path fill-rule="evenodd" clip-rule="evenodd" d="M1.2002 1.64185C1.2002 0.735081 1.93237 0 2.83554 0H18.708C19.6112 0 20.3434 0.735082 20.3434 1.64185V10.8169C20.3434 11.1903 20.0419 11.493 19.67 11.493C19.2981 11.493 18.9966 11.1903 18.9966 10.8169V1.64185C18.9966 1.48183 18.8674 1.35211 18.708 1.35211H2.83554C2.67616 1.35211 2.54695 1.48183 2.54695 1.64185V21.4406C2.54695 21.6007 2.67616 21.7304 2.83554 21.7304H10.0503C10.4222 21.7304 10.7237 22.0331 10.7237 22.4064C10.7237 22.7798 10.4222 23.0825 10.0503 23.0825H2.83554C1.93237 23.0825 1.2002 22.3474 1.2002 21.4406V1.64185Z" fill="#6E5FAF"/>
<path fill-rule="evenodd" clip-rule="evenodd" d="M16.159 12.7489C16.159 12.4022 16.4389 12.1211 16.7843 12.1211C20.0516 12.1211 22.7004 14.7804 22.7004 18.0607C22.7004 21.3411 20.0516 24.0004 16.7843 24.0004C13.5169 24.0004 10.8682 21.3411 10.8682 18.0607C10.8682 16.1171 11.7987 14.3915 13.2342 13.3089C13.5104 13.1007 13.9023 13.1566 14.1097 13.4338C14.3171 13.711 14.2614 14.1046 13.9853 14.3128C12.8507 15.1684 12.1187 16.5287 12.1187 18.0607C12.1187 20.6477 14.2076 22.7448 16.7843 22.7448C19.361 22.7448 21.4498 20.6477 21.4498 18.0607C21.4498 15.4738 19.361 13.3766 16.7843 13.3766C16.4389 13.3766 16.159 13.0956 16.159 12.7489Z" fill="#6E5FAF"/>
<path d="M18.2267 18.06C18.2267 18.8601 17.5807 19.5087 16.7838 19.5087C15.9869 19.5087 15.3408 18.8601 15.3408 18.06C15.3408 17.2599 15.9869 16.6113 16.7838 16.6113C17.5807 16.6113 18.2267 17.2599 18.2267 18.06Z" fill="#6E5FAF"/>
<path d="M16.9437 11.1066L15.4846 12.425C15.4053 12.4967 15.3992 12.6193 15.4709 12.6985L16.9301 14.31C17.0483 14.4406 17.2648 14.3566 17.2648 14.18V11.2502C17.2648 11.0829 17.0675 10.9947 16.9437 11.1066Z" fill="#6E5FAF"/>
</g>
<defs>
<clipPath id="clip0_1143_27024">
<rect width="24" height="24" fill="white" transform="translate(0.200195)"/>
</clipPath>
</defs>
</svg>
