<svg width="25" height="24" viewBox="0 0 25 24" fill="none" xmlns="http://www.w3.org/2000/svg">
<g clip-path="url(#clip0_1143_23413)">
<path fill-rule="evenodd" clip-rule="evenodd" d="M5.8584 5.05321C5.8584 4.67757 6.16891 4.37305 6.55195 4.37305L16.4598 4.37305C16.8428 4.37305 17.1533 4.67757 17.1533 5.05321C17.1533 5.42885 16.8428 5.73337 16.4598 5.73337L6.55195 5.73337C6.16891 5.73337 5.8584 5.42885 5.8584 5.05321Z" fill="#E3B85B"/>
<path fill-rule="evenodd" clip-rule="evenodd" d="M5.8584 7.96727C5.8584 7.59163 6.16891 7.28711 6.55195 7.28711L14.4782 7.28711C14.8612 7.28711 15.1718 7.59163 15.1718 7.96727C15.1718 8.34292 14.8612 8.64743 14.4782 8.64743L6.55195 8.64743C6.16891 8.64743 5.8584 8.34291 5.8584 7.96727Z" fill="#E3B85B"/>
<path fill-rule="evenodd" clip-rule="evenodd" d="M5.8584 10.8833C5.8584 10.5076 6.16891 10.2031 6.55195 10.2031L11.5059 10.2031C11.8889 10.2031 12.1994 10.5076 12.1994 10.8833C12.1994 11.2589 11.8889 11.5634 11.5059 11.5634L6.55195 11.5634C6.16891 11.5634 5.8584 11.2589 5.8584 10.8833Z" fill="#E3B85B"/>
<path fill-rule="evenodd" clip-rule="evenodd" d="M5.8584 13.7973C5.8584 13.4217 6.16891 13.1172 6.55195 13.1172L9.5243 13.1172C9.90733 13.1172 10.2178 13.4217 10.2178 13.7973C10.2178 14.173 9.90733 14.4775 9.5243 14.4775L6.55195 14.4775C6.16891 14.4775 5.8584 14.173 5.8584 13.7973Z" fill="#E3B85B"/>
<path fill-rule="evenodd" clip-rule="evenodd" d="M1.3999 1.65182C1.3999 0.739545 2.154 0 3.08423 0H19.4322C20.3624 0 21.1165 0.739546 21.1165 1.65182V10.8826C21.1165 11.2582 20.806 11.5628 20.4229 11.5628C20.0399 11.5628 19.7294 11.2582 19.7294 10.8826V1.65182C19.7294 1.49083 19.5963 1.36032 19.4322 1.36032H3.08423C2.92008 1.36032 2.787 1.49083 2.787 1.65182V21.5709C2.787 21.7318 2.92008 21.8623 3.08423 21.8623H10.5151C10.8981 21.8623 11.2087 22.1669 11.2087 22.5425C11.2087 22.9182 10.8981 23.2227 10.5151 23.2227H3.08423C2.154 23.2227 1.3999 22.4831 1.3999 21.5709V1.65182Z" fill="#E3B85B"/>
<path fill-rule="evenodd" clip-rule="evenodd" d="M16.955 22.6394C19.472 22.6394 21.5126 20.6383 21.5126 18.1698C21.5126 15.7013 19.472 13.7002 16.955 13.7002C14.4379 13.7002 12.3974 15.7013 12.3974 18.1698C12.3974 20.6383 14.4379 22.6394 16.955 22.6394ZM16.955 23.9998C20.2381 23.9998 22.8997 21.3896 22.8997 18.1698C22.8997 14.95 20.2381 12.3398 16.955 12.3398C13.6718 12.3398 11.0103 14.95 11.0103 18.1698C11.0103 21.3896 13.6718 23.9998 16.955 23.9998Z" fill="#E3B85B"/>
<path fill-rule="evenodd" clip-rule="evenodd" d="M16.9553 14.5742C17.3383 14.5742 17.6488 14.8787 17.6488 15.2544V17.8293L19.353 19.0827C19.6594 19.3081 19.7215 19.7344 19.4917 20.0349C19.2619 20.3355 18.8271 20.3964 18.5207 20.171L16.6184 18.7718C16.3939 18.6066 16.2617 18.3474 16.2617 18.0722V15.2544C16.2617 14.8787 16.5722 14.5742 16.9553 14.5742Z" fill="#E3B85B"/>
</g>
<defs>
<clipPath id="clip0_1143_23413">
<rect width="24" height="24" fill="white" transform="translate(0.399902)"/>
</clipPath>
</defs>
</svg>
