<svg width="25" height="24" viewBox="0 0 25 24" fill="none" xmlns="http://www.w3.org/2000/svg">
<g clip-path="url(#clip0_1143_6793)">
<path fill-rule="evenodd" clip-rule="evenodd" d="M6.41797 5.21123C6.41797 4.82382 6.7396 4.50977 7.13635 4.50977L17.3989 4.50977C17.7956 4.50977 18.1173 4.82382 18.1173 5.21123C18.1173 5.59863 17.7956 5.91269 17.3989 5.91269L7.13635 5.91269C6.7396 5.91269 6.41797 5.59863 6.41797 5.21123Z" fill="#6E5FAF"/>
<path fill-rule="evenodd" clip-rule="evenodd" d="M6.41797 8.21709C6.41797 7.82968 6.7396 7.51563 7.13635 7.51563L15.3464 7.51563C15.7431 7.51563 16.0647 7.82968 16.0647 8.21709C16.0647 8.60449 15.7431 8.91855 15.3464 8.91855L7.13635 8.91855C6.7396 8.91855 6.41797 8.60449 6.41797 8.21709Z" fill="#6E5FAF"/>
<path fill-rule="evenodd" clip-rule="evenodd" d="M6.41797 11.2229C6.41797 10.8355 6.7396 10.5215 7.13635 10.5215L12.2676 10.5215C12.6644 10.5215 12.986 10.8355 12.986 11.2229C12.986 11.6104 12.6644 11.9244 12.2676 11.9244L7.13635 11.9244C6.7396 11.9244 6.41797 11.6104 6.41797 11.2229Z" fill="#6E5FAF"/>
<path fill-rule="evenodd" clip-rule="evenodd" d="M6.41797 14.2288C6.41797 13.8414 6.7396 13.5273 7.13635 13.5273L10.2151 13.5273C10.6119 13.5273 10.9335 13.8414 10.9335 14.2288C10.9335 14.6162 10.6119 14.9303 10.2151 14.9303L7.13635 14.9303C6.7396 14.9303 6.41797 14.6162 6.41797 14.2288Z" fill="#6E5FAF"/>
<path fill-rule="evenodd" clip-rule="evenodd" d="M1.7998 1.70355C1.7998 0.762704 2.5809 0 3.54444 0H20.4776C21.4411 0 22.2222 0.762705 22.2222 1.70355V11.2234C22.2222 11.6108 21.9006 11.9248 21.5039 11.9248C21.1071 11.9248 20.7855 11.6108 20.7855 11.2234V1.70355C20.7855 1.53752 20.6476 1.40292 20.4776 1.40292H3.54444C3.3744 1.40292 3.23656 1.53752 3.23656 1.70355V22.2463C3.23656 22.4124 3.3744 22.547 3.54443 22.547H11.2413C11.6381 22.547 11.9597 22.861 11.9597 23.2484C11.9597 23.6358 11.6381 23.9499 11.2413 23.9499H3.54443C2.5809 23.9499 1.7998 23.1872 1.7998 22.2463V1.70355Z" fill="#6E5FAF"/>
<path fill-rule="evenodd" clip-rule="evenodd" d="M14.2889 15.2006C14.5895 14.9071 15.0768 14.9071 15.3774 15.2006L18.6816 18.427L21.9858 15.2006C22.2864 14.9071 22.7737 14.9071 23.0743 15.2006C23.3749 15.4941 23.3749 15.97 23.0743 16.2635L19.7701 19.4899L23.0743 22.7163C23.3749 23.0098 23.3749 23.4856 23.0743 23.7791C22.7737 24.0726 22.2864 24.0726 21.9858 23.7791L18.6816 20.5527L15.3774 23.7791C15.0768 24.0726 14.5895 24.0726 14.2889 23.7791C13.9883 23.4856 13.9883 23.0098 14.2889 22.7163L17.5931 19.4899L14.2889 16.2635C13.9883 15.97 13.9883 15.4941 14.2889 15.2006Z" fill="#6E5FAF"/>
</g>
<defs>
<clipPath id="clip0_1143_6793">
<rect width="24" height="24" fill="white" transform="translate(0.799805)"/>
</clipPath>
</defs>
</svg>
