<svg width="72" height="72" viewBox="0 0 72 72" fill="none" xmlns="http://www.w3.org/2000/svg">
<g opacity="0.8" filter="url(#filter0_d)">
<circle cx="36" cy="28" r="28" fill="#27AE60"/>
</g>
<path fill-rule="evenodd" clip-rule="evenodd" d="M47.4976 20.4685C47.8193 20.7685 48 21.1754 48 21.5997C48 22.024 47.8193 22.4309 47.4976 22.731L33.7711 35.5315C33.4493 35.8315 33.013 36 32.558 36C32.103 36 31.6667 35.8315 31.3449 35.5315L24.4817 29.1312C24.1691 28.8295 23.9962 28.4253 24.0001 28.0058C24.004 27.5862 24.1844 27.1849 24.5026 26.8882C24.8207 26.5916 25.251 26.4233 25.7009 26.4197C26.1508 26.416 26.5842 26.5773 26.9078 26.8688L32.558 32.1378L45.0715 20.4685C45.3932 20.1685 45.8296 20 46.2845 20C46.7395 20 47.1759 20.1685 47.4976 20.4685Z" fill="white"/>
<defs>
<filter id="filter0_d" x="0" y="0" width="72" height="72" filterUnits="userSpaceOnUse" color-interpolation-filters="sRGB">
<feFlood flood-opacity="0" result="BackgroundImageFix"/>
<feColorMatrix in="SourceAlpha" type="matrix" values="0 0 0 0 0 0 0 0 0 0 0 0 0 0 0 0 0 0 127 0"/>
<feOffset dy="8"/>
<feGaussianBlur stdDeviation="4"/>
<feColorMatrix type="matrix" values="0 0 0 0 0.152941 0 0 0 0 0.682353 0 0 0 0 0.376471 0 0 0 0.25 0"/>
<feBlend mode="normal" in2="BackgroundImageFix" result="effect1_dropShadow"/>
<feBlend mode="normal" in="SourceGraphic" in2="effect1_dropShadow" result="shape"/>
</filter>
</defs>
</svg>
