<svg width="25" height="24" viewBox="0 0 25 24" fill="none" xmlns="http://www.w3.org/2000/svg">
<g clip-path="url(#clip0_1143_45648)">
<path fill-rule="evenodd" clip-rule="evenodd" d="M5.85937 5.05321C5.85937 4.67757 6.16989 4.37305 6.55292 4.37305L16.4608 4.37305C16.8438 4.37305 17.1543 4.67757 17.1543 5.05321C17.1543 5.42885 16.8438 5.73337 16.4608 5.73337L6.55292 5.73337C6.16989 5.73337 5.85937 5.42885 5.85937 5.05321Z" fill="#6E5FAF"/>
<path fill-rule="evenodd" clip-rule="evenodd" d="M5.85937 7.96727C5.85937 7.59163 6.16989 7.28711 6.55292 7.28711L14.4792 7.28711C14.8622 7.28711 15.1727 7.59163 15.1727 7.96727C15.1727 8.34292 14.8622 8.64743 14.4792 8.64743L6.55292 8.64743C6.16989 8.64743 5.85937 8.34291 5.85937 7.96727Z" fill="#6E5FAF"/>
<path fill-rule="evenodd" clip-rule="evenodd" d="M5.85937 10.8833C5.85937 10.5076 6.16989 10.2031 6.55292 10.2031L11.5068 10.2031C11.8899 10.2031 12.2004 10.5076 12.2004 10.8833C12.2004 11.2589 11.8899 11.5634 11.5068 11.5634L6.55292 11.5634C6.16989 11.5634 5.85937 11.2589 5.85937 10.8833Z" fill="#6E5FAF"/>
<path fill-rule="evenodd" clip-rule="evenodd" d="M5.85937 13.7973C5.85937 13.4217 6.16989 13.1172 6.55292 13.1172L9.52527 13.1172C9.90831 13.1172 10.2188 13.4217 10.2188 13.7973C10.2188 14.173 9.90831 14.4775 9.52527 14.4775L6.55292 14.4775C6.16989 14.4775 5.85937 14.173 5.85937 13.7973Z" fill="#6E5FAF"/>
<path fill-rule="evenodd" clip-rule="evenodd" d="M1.40039 1.65182C1.40039 0.739545 2.15449 0 3.08472 0H19.4326C20.3629 0 21.117 0.739546 21.117 1.65182V10.8826C21.117 11.2582 20.8065 11.5628 20.4234 11.5628C20.0404 11.5628 19.7299 11.2582 19.7299 10.8826V1.65182C19.7299 1.49083 19.5968 1.36032 19.4326 1.36032H3.08472C2.92056 1.36032 2.78749 1.49083 2.78749 1.65182V21.5709C2.78749 21.7318 2.92056 21.8623 3.08472 21.8623H10.5156C10.8986 21.8623 11.2091 22.1669 11.2091 22.5425C11.2091 22.9182 10.8986 23.2227 10.5156 23.2227H3.08472C2.15449 23.2227 1.40039 22.4831 1.40039 21.5709V1.65182Z" fill="#6E5FAF"/>
<path fill-rule="evenodd" clip-rule="evenodd" d="M16.9554 22.6394C19.4725 22.6394 21.513 20.6383 21.513 18.1698C21.513 15.7013 19.4725 13.7002 16.9554 13.7002C14.4383 13.7002 12.3978 15.7013 12.3978 18.1698C12.3978 20.6383 14.4383 22.6394 16.9554 22.6394ZM16.9554 23.9998C20.2386 23.9998 22.9001 21.3896 22.9001 18.1698C22.9001 14.95 20.2386 12.3398 16.9554 12.3398C13.6723 12.3398 11.0107 14.95 11.0107 18.1698C11.0107 21.3896 13.6723 23.9998 16.9554 23.9998Z" fill="#6E5FAF"/>
<path fill-rule="evenodd" clip-rule="evenodd" d="M16.9553 14.5742C17.3383 14.5742 17.6488 14.8787 17.6488 15.2544V17.8293L19.353 19.0827C19.6594 19.3081 19.7215 19.7344 19.4917 20.0349C19.2619 20.3355 18.8271 20.3964 18.5207 20.171L16.6184 18.7718C16.3939 18.6066 16.2617 18.3474 16.2617 18.0722V15.2544C16.2617 14.8787 16.5722 14.5742 16.9553 14.5742Z" fill="#6E5FAF"/>
</g>
<defs>
<clipPath id="clip0_1143_45648">
<rect width="24" height="24" fill="white" transform="translate(0.400391)"/>
</clipPath>
</defs>
</svg>
