<svg width="24" height="24" viewBox="0 0 24 24" fill="none" xmlns="http://www.w3.org/2000/svg">
<g clip-path="url(#clip0_103_8729)">
<path fill-rule="evenodd" clip-rule="evenodd" d="M3.68165 1.37706C3.51776 1.37706 3.38489 1.50918 3.38489 1.67215V22.3279C3.38489 22.4909 3.51776 22.623 3.68165 22.623H20.3183C20.4822 22.623 20.6151 22.4909 20.6151 22.3279V7.0328H16.4183C15.4896 7.0328 14.7367 6.28416 14.7367 5.36067V0.92058C14.7367 0.225772 15.5761 -0.128065 16.0783 0.355081L22 6.05242V22.3279C22 23.2514 21.2471 24 20.3183 24H3.68165C2.7529 24 2 23.2514 2 22.3279V1.67215C2 0.748653 2.7529 1.52588e-05 3.68165 1.52588e-05H13.0342C13.4166 1.52588e-05 13.7266 0.308278 13.7266 0.68854C13.7266 1.0688 13.4166 1.37706 13.0342 1.37706H3.68165ZM19.5961 5.65575H16.4183C16.2544 5.65575 16.1215 5.52364 16.1215 5.36067V2.31282L19.5961 5.65575Z" fill="#6E5FAF"/>
<path fill-rule="evenodd" clip-rule="evenodd" d="M5.95679 9.94339C5.95679 9.56313 6.26681 9.25487 6.64923 9.25487L16.991 9.25487C17.3734 9.25487 17.6834 9.56313 17.6834 9.94339C17.6834 10.3237 17.3734 10.6319 16.991 10.6319L6.64923 10.6319C6.26681 10.6319 5.95679 10.3237 5.95679 9.94339Z" fill="#6E5FAF"/>
<path fill-rule="evenodd" clip-rule="evenodd" d="M7.9353 13.0283C7.9353 12.6481 8.24532 12.3398 8.62775 12.3398L16.9011 12.3398C17.2836 12.3398 17.5936 12.6481 17.5936 13.0283C17.5936 13.4086 17.2836 13.7168 16.9011 13.7168L8.62775 13.7168C8.24532 13.7168 7.9353 13.4086 7.9353 13.0283Z" fill="#6E5FAF"/>
<path fill-rule="evenodd" clip-rule="evenodd" d="M8.92456 16.1133C8.92456 15.733 9.23458 15.4248 9.61701 15.4248L14.7879 15.4248C15.1703 15.4248 15.4803 15.733 15.4803 16.1133C15.4803 16.4935 15.1703 16.8018 14.7879 16.8018L9.61701 16.8018C9.23458 16.8018 8.92456 16.4935 8.92456 16.1133Z" fill="#6E5FAF"/>
</g>
<defs>
<clipPath id="clip0_103_8729">
<rect width="24" height="24" fill="white"/>
</clipPath>
</defs>
</svg>
