<svg width="25" height="24" viewBox="0 0 25 24" fill="none" xmlns="http://www.w3.org/2000/svg">
<g clip-path="url(#clip0_1143_23429)">
<path fill-rule="evenodd" clip-rule="evenodd" d="M6.21826 5.22246C6.21826 4.83424 6.53989 4.51953 6.93664 4.51953L17.1992 4.51953C17.5959 4.51953 17.9175 4.83424 17.9175 5.22246C17.9175 5.61068 17.5959 5.92539 17.1992 5.92539L6.93664 5.92539C6.53989 5.92539 6.21826 5.61068 6.21826 5.22246Z" fill="#67B0C0"/>
<path fill-rule="evenodd" clip-rule="evenodd" d="M6.21826 8.23418C6.21826 7.84596 6.53989 7.53125 6.93664 7.53125L15.1467 7.53125C15.5434 7.53125 15.865 7.84596 15.865 8.23418C15.865 8.6224 15.5434 8.93711 15.1467 8.93711L6.93664 8.93711C6.53989 8.93711 6.21826 8.6224 6.21826 8.23418Z" fill="#67B0C0"/>
<path fill-rule="evenodd" clip-rule="evenodd" d="M6.21826 11.2459C6.21826 10.8577 6.53989 10.543 6.93664 10.543L12.0679 10.543C12.4647 10.543 12.7863 10.8577 12.7863 11.2459C12.7863 11.6341 12.4647 11.9488 12.0679 11.9488L6.93664 11.9488C6.53989 11.9488 6.21826 11.6341 6.21826 11.2459Z" fill="#67B0C0"/>
<path fill-rule="evenodd" clip-rule="evenodd" d="M6.21826 14.2596C6.21826 13.8714 6.53989 13.5566 6.93664 13.5566L10.0154 13.5566C10.4121 13.5566 10.7338 13.8714 10.7338 14.2596C10.7338 14.6478 10.4121 14.9625 10.0154 14.9625L6.93664 14.9625C6.53989 14.9625 6.21826 14.6478 6.21826 14.2596Z" fill="#67B0C0"/>
<path fill-rule="evenodd" clip-rule="evenodd" d="M1.6001 1.70711C1.6001 0.7643 2.3812 0 3.34473 0H20.2779C21.2414 0 22.0225 0.7643 22.0225 1.70711V11.2469C22.0225 11.6351 21.7009 11.9498 21.3042 11.9498C20.9074 11.9498 20.5858 11.6351 20.5858 11.2469V1.70711C20.5858 1.54073 20.4479 1.40586 20.2779 1.40586H3.34473C3.17469 1.40586 3.03685 1.54073 3.03685 1.70711V22.2929C3.03685 22.4593 3.17469 22.5941 3.34473 22.5941H11.0416C11.4384 22.5941 11.76 22.9089 11.76 23.2971C11.76 23.6853 11.4384 24 11.0416 24H3.34473C2.3812 24 1.6001 23.2357 1.6001 22.2929V1.70711Z" fill="#67B0C0"/>
<path fill-rule="evenodd" clip-rule="evenodd" d="M22.8503 15.2097C23.1637 15.4907 23.1849 15.9672 22.8976 16.2738L17.3981 22.1443C17.023 22.5446 16.3825 22.5582 15.99 22.1742L13.0628 19.31C12.7623 19.0158 12.7623 18.539 13.0628 18.2449C13.3634 17.9507 13.8508 17.9507 14.1513 18.2449L16.6617 20.7012L21.7629 15.2559C22.0501 14.9493 22.537 14.9286 22.8503 15.2097Z" fill="#67B0C0"/>
</g>
<defs>
<clipPath id="clip0_1143_23429">
<rect width="24" height="24" fill="white" transform="translate(0.600098)"/>
</clipPath>
</defs>
</svg>
